<?xml version="1.0" encoding="UTF-8" standalone="no"?>
<svg width="122px" height="69px" viewBox="0 0 122 69" version="1.1" xmlns="http://www.w3.org/2000/svg" xmlns:xlink="http://www.w3.org/1999/xlink">
    <g id="header-01" stroke="none" stroke-width="1" fill="none" fill-rule="evenodd" transform="translate(-100.000000, -40.000000)">
        <g id="jcc-logo-red" transform="translate(100.000000, 40.000000)">
            <polygon id="Fill-1" fill="#FFFFFF" points="0 69.0014882 120.967683 69.0014882 120.967683 0.00148816852 0 0.00148816852"></polygon>
            <path d="M22.7147141,66.93 C23.899251,66.2115 24.2852236,64.653 23.5753888,63.453 C23.3639172,63.093 23.0681527,62.7945 22.7147141,62.58 C21.4414479,61.7865 21.040687,60.096 21.8229841,58.8045 C22.0448075,58.4355 22.3509238,58.1265 22.7147141,57.8985 C23.899251,57.18 24.2852236,55.6245 23.5753888,54.423 C23.3639172,54.0645 23.0681527,53.7645 22.7147141,53.55 C21.4414479,52.758 21.040687,51.0675 21.8229841,49.7745 C22.0448075,49.4055 22.3509238,49.095 22.7147141,48.87 C23.899251,48.1665 24.2970542,46.623 23.6049653,45.4215 C23.3890572,45.0495 23.0829409,44.7375 22.7147141,44.52 C21.4414479,43.7265 21.040687,42.036 21.8229841,40.7445 C22.0448075,40.377 22.3509238,40.0665 22.7147141,39.8385 C23.899251,39.138 24.2970542,37.593 23.6049653,36.393 C23.3890572,36.0195 23.0829409,35.709 22.7147141,35.49 C21.4414479,34.698 21.040687,33.0075 21.8229841,31.7145 C22.0448075,31.3455 22.3509238,31.0365 22.7147141,30.81 C23.899251,30.09 24.2852236,28.5345 23.5753888,27.333 C23.3639172,26.9745 23.0681527,26.6745 22.7147141,26.46 C21.4414479,25.668 21.040687,23.9775 21.8229841,22.6845 C22.0448075,22.3155 22.3509238,22.0065 22.7147141,21.78 C23.899251,21.06 24.2852236,19.5045 23.5753888,18.303 C23.3639172,17.9445 23.0681527,17.6445 22.7147141,17.43 C21.4414479,16.638 21.040687,14.9475 21.8229841,13.6545 C22.0448075,13.2855 22.3509238,12.9765 22.7147141,12.75 C23.899251,12.03 24.2852236,10.4745 23.5753888,9.273 C23.3639172,8.9145 23.0681527,8.6145 22.7147141,8.4 C21.4414479,7.608 21.040687,5.9175 21.8229841,4.6245 C22.0448075,4.2555 22.3509238,3.9465 22.7147141,3.72 C23.4600407,3.231 23.9184757,2.4 23.9421368,1.5 C23.940658,0.945 23.7351017,0.4095 23.365396,0 L0,0 L0,69 L21.457715,69 C21.5804572,68.1645 22.0344557,67.416 22.7147141,66.93" id="Fill-2" fill="#E63A40"></path>
            <path d="M28.2455022,0 C28.5693643,0.430968444 28.7409077,0.959542982 28.7335136,1.50163221 C28.6906277,2.44465724 28.2144469,3.31260065 27.446938,3.84417845 C26.2624011,4.54844396 25.8645979,6.0936235 26.5566868,7.29492927 C26.7725949,7.66883569 27.0787112,7.97967356 27.446938,8.19891186 C28.721683,8.99177367 29.1209651,10.6841132 28.338668,11.9785201 C28.1168446,12.3479217 27.8107283,12.6572579 27.446938,12.8840044 C26.2624011,13.6047878 25.8764285,15.1619804 26.5862633,16.3647878 C26.7977349,16.7236779 27.0934994,17.0240044 27.446938,17.2387378 C28.721683,18.0315996 29.1209651,19.7239391 28.338668,21.018346 C28.1168446,21.3877476 27.8107283,21.6970838 27.446938,21.9238303 C26.2624011,22.6265941 25.8645979,24.1732753 26.5566868,25.3745811 C26.7725949,25.7484875 27.0787112,26.0593254 27.446938,26.2785637 C28.721683,27.0714255 29.1209651,28.763765 28.338668,30.0581719 C28.1168446,30.4275734 27.8107283,30.7369097 27.446938,30.9636561 C26.2624011,31.66642 25.8645979,33.2131012 26.5566868,34.414407 C26.7725949,34.7883134 27.0787112,35.1006529 27.446938,35.3183896 C28.721683,36.112753 29.1209651,37.8035909 28.338668,39.0979978 C28.1168446,39.4658977 27.8107283,39.7767356 27.446938,40.003482 C26.2624011,40.7227639 25.8764285,42.2814581 26.5862633,43.4842655 C26.7977349,43.8431556 27.0934994,44.1419804 27.446938,44.3582155 C28.721683,45.1510773 29.1209651,46.8434168 28.338668,48.1378237 C28.1168446,48.5072252 27.8107283,48.8165615 27.446938,49.0433079 C26.2624011,49.7640914 25.8764285,51.3227856 26.5862633,52.525593 C26.7977349,52.8829815 27.0934994,53.1833079 27.446938,53.3980413 C28.721683,54.1924048 29.1209651,55.8832427 28.338668,57.1776496 C28.1168446,57.5455495 27.8107283,57.8563874 27.446938,58.0831338 C26.2624011,58.8024157 25.8764285,60.3611099 26.5862633,61.5639173 C26.7977349,61.9228074 27.0934994,62.2231338 27.446938,62.4378672 C28.2144469,62.9709467 28.6906277,63.8373885 28.7335136,64.7804135 C28.6625301,65.7534712 28.1626881,66.6424374 27.3729969,67.1980413 C26.7696373,67.62 26.355567,68.2687051 26.2195153,69 L121.26344,69 L121.26344,0 L28.2455022,0 Z" id="Fill-5" fill="#E63A40"></path>
            <path d="M55.840191,20.0459276 L59.5668238,20.0459276 L59.5668238,39.5111718 C59.5668238,47.2347664 55.7958263,49.6158361 50.8121944,49.6158361 C49.4531565,49.6158361 48.1029915,49.3836818 46.8193735,48.9312786 L47.3813261,45.8656514 C48.3839678,46.242158 49.4457623,46.4341318 50.5164299,46.4311554 C53.8585688,46.4311554 55.840191,44.9429869 55.840191,39.2284198 L55.840191,20.0459276 Z" id="Fill-7" fill="#FFFFFF"></path>
            <path d="M85.9935303,48.1867478 C83.5756555,49.1853089 80.9744066,49.6555702 78.362806,49.5707446 C70.2144939,49.5707446 64.0773804,44.3919181 64.0773804,34.8527579 C64.0773804,25.7451666 70.2144939,19.5692672 79.1761584,19.5692672 C81.5304439,19.4710481 83.8773353,19.9130341 86.037895,20.8639738 L85.1358133,23.929601 C83.3065098,23.1006911 81.3160146,22.6884684 79.3092525,22.7241845 C72.5362453,22.7241845 68.0258365,27.0845182 68.0258365,34.7188227 C68.0258365,41.8471499 72.0925985,46.4173155 79.1317938,46.4173155 C81.2243277,46.448567 83.3005945,46.0378325 85.2245426,45.2104108 L85.9935303,48.1867478 Z" id="Fill-9" fill="#FFFFFF"></path>
            <path d="M109.950751,48.1867478 C107.531397,49.1853089 104.931627,49.6555702 102.320027,49.5707446 C94.1717147,49.5707446 88.0346012,44.3919181 88.0346012,34.8527579 C88.0346012,25.7451666 94.1717147,19.5692672 103.133379,19.5692672 C105.487665,19.4710481 107.834556,19.9130341 109.995116,20.8639738 L109.093034,23.929601 C107.263731,23.1006911 105.273235,22.6884684 103.264994,22.7241845 C96.4919873,22.7241845 91.9830573,27.0845182 91.9830573,34.7188227 C91.9830573,41.8471499 96.0631287,46.4173155 103.087536,46.4173155 C105.18007,46.448567 107.257815,46.0378325 109.180285,45.2104108 L109.950751,48.1867478 Z" id="Fill-11" fill="#FFFFFF"></path>
            <path d="M6.78779543,63.693315 C6.94898708,63.2543053 7.03475879,62.792973 7.03919526,62.3242 C7.03919526,61.7586959 6.86173656,61.4610622 6.61033672,61.4610622 C6.35893689,61.4610622 6.21105464,61.7140509 6.04838416,62.3837267 C5.81177256,63.2915095 5.44206692,63.8718952 4.86532614,63.8718952 C4.28858535,63.8718952 3.65269166,63.0995358 3.65269166,61.803341 C3.64677637,61.3286152 3.71775985,60.8568658 3.85972681,60.4044626 L4.59913808,60.6872146 C4.47048052,61.0562804 4.40541233,61.4432042 4.40689115,61.8331043 C4.40689115,62.368845 4.58434985,62.6367153 4.79138501,62.6367153 C4.99842016,62.6367153 5.16109064,62.3242 5.35333757,61.6247608 C5.61952563,60.6574512 5.98923126,60.1365922 6.55118382,60.1365922 C7.11313639,60.1365922 7.79339475,60.8509131 7.79339475,62.3554515 C7.79043711,62.8599406 7.70614422,63.3629416 7.54199492,63.84362 L6.78779543,63.693315 Z" id="Fill-13" fill="#FFFFFF"></path>
            <polygon id="Fill-15" fill="#FFFFFF" points="3.69705633 59.2886338 7.71945362 59.2886338 7.71945362 58.0385723 3.69705633 58.0385723"></polygon>
            <path d="M7.71915786,57.0270641 L3.69676057,57.0270641 L3.69676057,55.5388956 L5.1755831,54.4063993 C5.61035693,54.0760259 6.07027074,53.7754159 6.55088806,53.5149864 C5.99780843,53.590883 5.43881351,53.626599 4.8798186,53.6191582 L3.69676057,53.6191582 L3.69676057,52.486662 L7.71915786,52.486662 L7.71915786,53.7813686 L6.24033533,54.9570217 C5.76859094,55.3067413 5.27466421,55.6252094 4.76151279,55.9109377 L6.50652338,55.9109377 L7.71915786,55.9109377 L7.71915786,57.0270641 Z" id="Fill-17" fill="#FFFFFF"></path>
            <path d="M7.60144359,47.382988 C7.73157997,47.8428321 7.79221169,48.319046 7.77890229,48.7967481 C7.77890229,50.6867221 6.92118522,51.6689134 5.76770365,51.6689134 C4.39239869,51.6689134 3.6381992,50.3295617 3.6381992,48.6925763 C3.62488979,48.2342204 3.6840427,47.7773527 3.8156579,47.338343 L4.54028094,47.5928198 C4.43824219,47.9291459 4.38944104,48.2818418 4.39239869,48.6330496 C4.39239869,49.6152408 4.82125722,50.3742067 5.72333897,50.3742067 C6.62542071,50.3742067 7.03949102,49.7194126 7.03949102,48.6181679 C7.0380122,48.2729128 6.99364753,47.9261695 6.906397,47.5928198 L7.60144359,47.382988 Z" id="Fill-18" fill="#FFFFFF"></path>
            <polygon id="Fill-19" fill="#FFFFFF" points="6.01865983 43.3051086 6.01865983 45.3156243 6.96510625 45.3156243 6.96510625 43.0684899 7.70451752 43.0684899 7.70451752 46.5641977 3.69690845 46.5641977 3.69690845 43.1562918 4.43631972 43.1562918 4.43631972 45.3007426 5.26446034 45.3007426 5.26446034 43.3051086"></polygon>
            <polygon id="Fill-20" fill="#FFFFFF" points="4.64379852 39.1980612 4.64379852 39.1980612 4.99871593 40.2100158 4.31845756 40.4183594 3.84523435 39.0194809 3.84523435 37.9926447 7.71974939 37.9926447 7.71974939 39.1831795"></polygon>
            <path d="M5.11687385,35.1209259 C5.45700303,35.1209259 5.73797931,34.8828189 5.73797931,34.3768416 C5.75720401,34.1223648 5.66551701,33.8723525 5.48657948,33.6922841 C5.41411718,33.6669852 5.33573958,33.6669852 5.2647561,33.6922841 C4.8580799,33.6506154 4.49576838,33.9482491 4.45436135,34.3574954 C4.44992489,34.3932115 4.44992489,34.4304157 4.45140371,34.4661317 C4.45879782,34.830733 4.75456233,35.1209259 5.11687385,35.1209259 Z M7.05413137,35.8650101 C7.06596195,35.6864299 7.06596195,35.5078497 7.05413137,35.3292695 C7.04525843,34.9691327 6.96540201,34.6149486 6.81751976,34.2875515 C6.67851044,33.9780125 6.42267415,33.7369292 6.10768495,33.6178757 C6.3147201,33.9289029 6.41380121,34.300945 6.38866123,34.6744753 C6.38866123,35.5673764 5.93022624,36.3263424 5.17602675,36.3263424 C4.42182726,36.3263424 3.78593357,35.492968 3.78593357,34.3321966 C3.78593357,33.1714251 4.55492129,32.3380507 5.45700303,32.3380507 C6.16683785,32.3127519 6.84118092,32.6624715 7.23159007,33.2607152 C7.59685924,33.8708643 7.78614852,34.5717917 7.77875441,35.2846244 L7.77875441,35.8501284 L7.05413137,35.8650101 Z" id="Fill-21" fill="#FFFFFF"></path>
            <path d="M6.66934174,29.0933969 C6.32921256,29.0933969 6.12217741,29.4356757 6.03344805,29.9267713 C5.9447187,30.4178669 6.32921256,30.5666838 6.61018884,30.5666838 C6.89116512,30.5666838 7.15735318,30.2839317 7.15735318,29.8225995 C7.15735318,29.3612673 6.95031803,29.0933969 6.66934174,29.0933969 M4.8356018,30.4773936 C5.10178986,30.4773936 5.26446034,30.1499966 5.35318969,29.7333094 C5.44191904,29.3166222 5.10178986,29.1975687 4.86517825,29.1975687 C4.62856665,29.1975687 4.39195504,29.3910306 4.39195504,29.8374812 C4.39195504,30.2839317 4.5989902,30.4773936 4.8356018,30.4773936 M6.69891819,31.8167453 C6.24048321,31.8167453 5.91514225,31.4447032 5.72289532,30.8791991 C5.53064839,31.3851764 5.22009566,31.6381651 4.87996648,31.6381651 C4.22928456,31.6381651 3.7856378,30.8345541 3.7856378,29.7779544 C3.7856378,28.7213548 4.30322569,28.0367973 4.7764489,28.0367973 C5.24967211,28.0367973 5.44191904,28.2749042 5.63416597,28.7957632 C5.78204822,28.2897859 6.09260096,27.8284537 6.59540062,27.8284537 C7.09820028,27.8284537 7.76367042,28.6320647 7.76367042,29.8672445 C7.76367042,31.1024244 7.24608253,31.8167453 6.69891819,31.8167453" id="Fill-22" fill="#FFFFFF"></path>
            <polygon id="Fill-23" fill="#FFFFFF" points="3.84523435 23.4386542 4.42197514 23.4386542 7.71974939 25.6113802 7.71974939 26.9209685 4.59943384 24.7482425 4.59943384 27.1739572 3.86002258 27.1739572"></polygon>
        </g>
    </g>
</svg>